<svg 
	 viewBox="0 0 489.608 489.608"
	 >

	<g>
		<g>
		<path d="M353.397,105.6c-31.1-7.6-81.9,19.6-94.1,28.4c1.2-13.6,8.9-87.9,54.8-113.1c4.7-2.7,6.2-8.6,3.9-13.2
			c-2.7-4.7-8.6-6.2-13.2-3.9c-31.5,17.9-47.8,52.1-56,81.3c-14-49-59.1-85.1-112.7-85.1c0,61,46.7,110.8,105.8,116.6
			c-1.2,8.2-1.6,14.4-1.9,17.1c-24.6-18.6-63-31.9-94.5-28.8c-80.2,8-132.3,101-116,206.7s94.5,185.1,175,176.5
			c10.5-1.2,20.6-3.9,30.3-7.8c8.9-3.5,19.4-3.5,28,0.4c10.1,4.3,20.6,7,31.5,8.2c13.6,1.6,27.2,0.4,40-2.7
			c-2.3-9.7-4.3-19.4-6.6-29.5c-1.9-8.6-4.6-23.6,7.4-33.4c5.4-8.6,2.3-19.8-0.4-29.9c-2.7-9.7,1.1-32.6,10.9-37.7
			c7-11.7-12.8-25.7-7.8-38.1c3.9-10.1,19.1-8.9,26.4-16.7c8.2-8.6,3.1-22.5,2.7-34.6c-0.6-6.8,3.9-7.8,6.2-8.6
			c14.4-5.4,33.8-7,39.3-21.4c1.9-4.7,0.7-23.4,12.1-25.7c5.8-0.8,10.1,4.3,15.6,6.2c7.4,2.7,15.2-0.8,21.4-5.4
			c0.8-0.4,1.2-0.8,1.6-1.6C446.297,152.6,405.897,111,353.397,105.6z"/>
		</g>
	</g>
</svg>
