<svg
    viewBox="4.023 0.125 42.177 37.972"
    
    fill-rule="evenodd"
    clip-rule="evenodd"
    >

    <g
        transform="matrix(1, 0, 0, 1, -108.7515640258789, 0.09675399959087372)"
    >
        <path
            d="M128.538,4.947c0.452,0.118,0.806,0.341,0.996,0.714l0,0c0.124,0.249,0.183,0.537,0.183,0.884l0,0c0,0.354-0.059,0.767-0.157,1.251l0,0c-0.138,0.636-0.269,1.16-0.472,1.612l0,0c-0.203,0.452-0.478,0.826-0.878,1.14l0,0c-0.799,0.629-2.044,1.009-4.252,1.507l0,0c-2.922,0.649-4.933,1.186-6.355,1.893l0,0c-1.422,0.708-2.247,1.553-2.87,2.889l0,0c-0.413,0.891-0.727,2.005-1.029,3.413l0,0l-0.826,4.193h18.915l0.884-4.246h-13.162c0,0,0.203-1.022,0.373-1.396l0,0c0.216-0.485,0.498-0.845,0.865-1.114l0,0c0.367-0.269,0.812-0.446,1.35-0.596l0,0c1.081-0.301,2.575-0.504,4.77-1.061l0,0c2.706-0.701,4.534-1.468,5.824-2.706l0,0c1.291-1.238,2.077-2.981,2.653-5.713l0,0c0.216-1.009,0.334-2.005,0.334-2.758l0,0c0-1.081-0.21-1.913-0.583-2.549l0,0c-0.373-0.636-0.911-1.094-1.618-1.435l0,0c-1.402-0.675-3.466-0.832-5.91-0.832l0,0c-3.112,0-5.562,0.321-7.384,1.441l0,0c-1.821,1.114-3.086,3.145-3.793,6.453l0,0l-0.197,0.937h5.752l0.223-1.035c0.223-0.989,0.432-1.664,0.806-2.142l0,0c0.373-0.485,0.917-0.714,1.651-0.806l0,0c0.498-0.066,1.094-0.079,1.834-0.079l0,0c0.118,0,0.229,0,0.341,0l0,0C127.523,4.796,128.086,4.829,128.538,4.947L128.538,4.947z"
        />
        <path
            d="M144.407,2.608c-0.668,0.694-6.283,6.565-8.583,8.976c-0.459,0.491-0.95,1.035-1.166,1.487c-0.177,0.328-0.406,1.238-0.524,1.887c-0.242,1.356-0.426,2.594-0.537,3.099c-0.026,0.131-0.039,0.249-0.039,0.36c0,0.419,0.177,0.694,0.413,0.898c0.229,0.197,0.544,0.288,0.852,0.288c0.282,0,11.144,0,11.144,0l-1.029,4.842l5.864-0.557l0.911-4.291h2.097l0.911-4.291h-2.097c0,0,2.097-9.788,2.162-10.155c0.721-3.964-0.924-5.123-4.632-5.123C149.209,0.046,147.067-0.151,144.407,2.608z M146.87,15.318h-8.419L148.469,4.94h0.609L146.87,15.318z"
        />
        <path
            d="M131.277,38L131.277,38c-3.787,0-7.423-1.009-10.516-2.922c-3.04-1.874-4.809-4.088-5.648-5.34l-1.107,2.85c-0.098,0.262-0.373,0.426-0.668,0.38c-0.288-0.052-0.504-0.301-0.504-0.59l-0.059-5.589v-0.007c0-0.157,0.066-0.308,0.177-0.413c0.118-0.111,0.269-0.177,0.432-0.177h5.687h0.007c0.282,0.007,0.524,0.216,0.577,0.491c0.007,0.039,0.013,0.072,0.013,0.111c0,0.249-0.157,0.472-0.387,0.563l-2.771,1.074c2.431,2.169,7.443,5.654,14.479,5.654c0.603,0,1.212-0.026,1.815-0.079c2.968-0.249,5.962-0.983,8.661-2.11c2.365-0.989,4.449-2.247,6.041-3.649l-2.863-0.845c-0.256-0.072-0.439-0.308-0.439-0.577c0-0.02,0-0.039,0-0.059c0.026-0.288,0.262-0.518,0.55-0.544l5.549-0.504c0.026,0,0.046-0.007,0.059-0.007c0.144,0,0.282,0.052,0.387,0.138c0.124,0.105,0.203,0.256,0.216,0.413c0.459,5.458,0.459,5.458,0.459,5.477c0,0.269-0.183,0.511-0.446,0.583c-0.052,0.013-0.105,0.02-0.157,0.02c-0.236,0-0.446-0.131-0.55-0.334l-1.343-2.568c-1.074,1.454-2.948,3.505-5.883,5.287c-2.974,1.808-6.296,2.883-9.873,3.184l-0.36,0.033l0,0C132.306,37.98,131.788,38,131.277,38z"
        />
    </g>
</svg>
